<?xml version="1.0" standalone="no"?>
<!DOCTYPE svg PUBLIC "-//W3C//DTD SVG 20010904//EN"
 "http://www.w3.org/TR/2001/REC-SVG-20010904/DTD/svg10.dtd">
<svg version="1.0" xmlns="http://www.w3.org/2000/svg"
 width="1186.000000pt" height="880.000000pt" viewBox="0 0 1186.000000 880.000000"
 preserveAspectRatio="xMidYMid meet">
<metadata>
Created by potrace 1.16, written by Peter Selinger 2001-2019
</metadata>
<g transform="translate(0.000000,880.000000) scale(0.100000,-0.100000)"
fill="#000000" stroke="none">
<path d="M5645 8246 c-44 -7 -97 -16 -118 -20 l-37 -7 27 -37 c15 -20 100
-125 188 -232 89 -107 207 -251 262 -320 55 -69 110 -134 122 -144 21 -19 21
-19 73 18 29 21 74 52 100 69 26 18 48 35 48 39 0 28 -344 473 -457 591 -62
65 -64 65 -208 43z"/>
<path d="M7703 7373 c2 -5 25 -44 51 -89 60 -106 161 -344 196 -464 15 -52 27
-96 26 -97 -1 -2 -56 15 -122 38 -300 101 -566 148 -887 156 l-218 6 8 -29 c7
-30 7 -73 -1 -109 -4 -16 16 -35 99 -94 152 -108 319 -263 440 -408 58 -70
110 -129 113 -130 14 -5 306 222 442 344 78 69 143 123 145 121 15 -15 36
-236 37 -383 0 -210 -25 -379 -86 -580 -4 -11 1 -4 10 15 28 60 71 249 89 390
48 371 -30 781 -212 1120 -47 87 -120 200 -129 200 -3 0 -3 -3 -1 -7z"/>
<path d="M6365 7301 c-55 -38 -99 -71 -98 -75 0 -4 25 -48 54 -98 35 -60 65
-98 89 -114 l37 -25 39 23 c31 18 53 23 107 22 37 0 67 4 67 8 0 21 -170 311
-189 323 -4 2 -52 -27 -106 -64z"/>
<path d="M5101 7258 c-22 -67 -70 -318 -85 -443 -25 -208 -27 -187 24 -212
l44 -22 54 31 c35 20 114 91 213 192 152 154 206 215 117 130 -100 -94 -171
-148 -199 -150 -17 -1 -27 3 -26 10 1 6 -9 10 -23 9 -14 -1 -19 0 -12 3 14 7
16 24 3 24 -12 0 -33 -62 -24 -69 14 -11 12 -28 -3 -28 -8 0 -14 10 -14 22 0
46 75 452 96 517 5 16 -3 18 -75 18 l-79 0 -11 -32z"/>
<path d="M4580 7245 c-139 -27 -316 -76 -460 -128 -113 -40 -117 -46 -179
-232 -81 -244 -106 -415 -98 -673 8 -281 57 -481 182 -740 202 -419 531 -745
960 -952 201 -97 346 -144 595 -191 163 -30 508 -38 669 -15 408 60 779 222
1089 475 109 88 223 201 204 201 -7 0 -12 -5 -12 -11 0 -8 -5 -7 -15 1 -16 13
-302 36 -313 25 -5 -5 49 -9 76 -6 6 1 12 -3 12 -9 0 -5 -3 -9 -7 -8 -5 1 -23
-3 -41 -10 -28 -9 -32 -15 -27 -33 6 -19 5 -20 -15 -9 -12 6 -24 9 -28 6 -3
-3 1 -6 8 -6 11 0 11 -3 2 -12 -15 -15 -16 -31 0 -22 7 4 8 3 4 -4 -9 -15 -11
-15 -31 4 -13 13 -16 14 -15 3 4 -28 0 -40 -12 -33 -10 5 -10 4 -2 -5 13 -14
7 -51 -7 -51 -5 0 -5 8 -2 18 6 14 4 15 -8 5 -14 -11 -17 -12 -41 -14 -7 0 -4
-4 7 -9 17 -7 17 -9 3 -9 -10 -1 -18 -8 -18 -17 0 -14 3 -14 15 -4 8 7 15 8
15 2 0 -5 -6 -14 -13 -20 -16 -14 -42 1 -32 18 6 9 3 9 -13 1 -12 -6 -23 -7
-26 -2 -7 10 13 71 22 71 4 0 7 12 8 28 0 15 3 45 7 67 9 52 7 46 -43 -115
-23 -74 -60 -174 -82 -222 -39 -83 -42 -87 -92 -109 -53 -23 -244 -89 -258
-89 -4 0 20 40 53 90 55 82 155 278 146 286 -2 3 -12 -14 -22 -36 -10 -22 -21
-40 -24 -40 -13 0 -243 131 -396 225 -88 54 -256 164 -374 244 -118 80 -226
151 -240 157 -17 7 -51 8 -101 3 -41 -4 -139 -8 -218 -8 -112 -1 -142 2 -136
12 6 8 3 8 -9 -1 -23 -20 -44 -11 -24 10 13 12 14 23 7 48 -8 27 -7 30 5 20
12 -10 15 -9 15 8 0 11 -8 23 -17 25 -10 3 53 5 139 6 86 0 159 5 162 10 7 11
-439 340 -449 329 -5 -6 62 -285 104 -428 58 -195 116 -341 216 -545 81 -165
190 -343 262 -432 20 -24 33 -46 30 -50 -7 -6 -188 24 -224 38 -46 17 -236
370 -321 599 -90 241 -145 460 -197 795 -9 55 -20 101 -24 103 -4 1 -6 17 -5
35 1 26 0 26 -3 5 -2 -16 -8 -28 -12 -28 -4 0 -72 62 -150 138 l-142 138 -130
-114 c-142 -124 -256 -248 -385 -415 -45 -59 -85 -104 -88 -99 -2 4 -18 43
-35 86 l-31 77 19 27 c25 35 248 252 331 323 98 83 260 203 357 265 84 52 87
56 85 88 -7 75 36 159 98 191 27 14 28 18 35 117 4 57 15 172 26 257 11 85 17
156 15 158 -2 3 -7 -20 -11 -51 -4 -31 -9 -56 -12 -56 -2 0 -18 7 -34 16 -19
9 -29 21 -25 30 3 7 2 13 -2 12 -4 -2 -20 10 -36 25 -16 14 -32 24 -36 22 -5
-3 -6 4 -3 14 6 24 -13 61 -31 61 -12 0 -25 28 -26 52 0 4 15 9 33 11 l32 4
-30 1 c-16 0 -86 -10 -155 -23z"/>
<path d="M6310 6883 c-135 -23 -348 -70 -447 -99 -157 -45 -423 -148 -584
-225 l-127 -61 5 -63 c3 -36 0 -78 -6 -98 -13 -37 -92 -117 -117 -117 -18 0
-18 0 11 -180 26 -156 37 -207 32 -138 -2 28 1 39 13 43 17 5 24 35 8 35 -5 0
0 10 11 22 11 11 18 25 15 30 -3 5 -2 7 3 6 4 -2 8 1 8 5 0 8 32 31 45 32 3 0
14 6 26 12 18 11 38 0 175 -99 182 -131 490 -336 606 -403 l83 -48 107 27
c221 55 419 127 632 227 l113 53 -7 60 c-17 156 -110 448 -198 624 -71 140
-65 134 -115 127 -114 -17 -214 70 -216 187 -1 52 -4 53 -76 41z m-82 -247
c82 -38 171 -132 201 -211 75 -200 -6 -408 -195 -501 -212 -105 -458 -9 -545
213 -17 44 -23 79 -23 143 0 75 4 93 31 152 52 110 139 189 246 224 26 8 77
13 132 11 75 -2 101 -7 153 -31z"/>
<path d="M6910 6474 c0 -3 22 -75 49 -158 27 -83 61 -204 76 -269 l28 -117 46
26 c75 44 201 126 201 131 0 14 -130 160 -212 238 -91 87 -188 164 -188 149z"/>
<path d="M6917 5569 c3 -83 -6 -129 -25 -129 -4 0 -9 12 -10 27 -3 33 -11 42
-22 23 -7 -11 -10 -11 -10 -2 0 7 6 15 14 18 8 3 12 12 9 20 -3 9 2 14 13 14
18 1 18 1 1 11 -22 13 -40 2 -32 -19 5 -13 1 -12 -13 3 -26 28 -24 48 4 41 25
-7 41 8 23 20 -7 4 -9 3 -5 -4 4 -7 -5 -9 -29 -5 -29 5 -34 3 -30 -9 4 -9 -1
-18 -12 -22 -9 -4 -14 -4 -10 0 4 4 -1 12 -10 19 -14 10 -11 13 23 19 21 5 41
11 44 15 3 5 19 16 35 25 36 21 31 19 -165 -54 -85 -32 -209 -75 -275 -94 -66
-20 -127 -39 -135 -42 -21 -9 39 -25 65 -18 13 3 16 2 8 -3 -9 -6 11 -17 58
-32 39 -12 73 -21 75 -18 3 2 -16 10 -40 17 -25 7 -52 21 -62 31 -15 17 -15
18 7 17 13 -1 30 -6 37 -11 8 -6 12 -5 12 3 0 9 7 7 22 -6 12 -10 18 -13 14
-6 -4 6 -4 12 -1 12 8 0 35 -26 32 -31 -1 -3 4 3 12 11 10 11 14 12 18 3 3 -7
11 -13 19 -13 9 0 12 5 9 10 -3 6 3 10 15 10 12 0 19 -4 16 -8 -3 -5 1 -9 9
-9 8 0 15 5 15 11 0 6 4 5 9 -3 5 -8 16 -11 25 -8 9 4 16 3 16 -2 0 -5 20 -7
45 -6 25 1 45 -2 45 -8 0 -5 7 -6 16 -3 9 4 13 2 8 -5 -4 -7 0 -9 13 -5 25 8
71 -15 65 -32 -2 -6 -11 -12 -20 -13 -10 -1 -7 -4 8 -8 14 -4 27 -17 30 -31 6
-25 6 -25 14 5 11 46 20 365 10 365 -5 0 -8 -41 -7 -91z"/>
<path d="M7284 3836 c-19 -19 -34 -45 -35 -57 -2 -46 3 -74 17 -90 18 -20 18
-39 0 -39 -23 0 -26 -13 -15 -54 8 -27 15 -36 27 -32 153 42 223 68 218 82 -3
9 -9 27 -12 40 -6 22 -10 24 -38 18 -48 -12 -79 -8 -93 12 -28 39 -8 69 45 67
38 -2 40 0 46 33 4 19 4 39 1 44 -3 6 -33 10 -67 10 -55 0 -63 -3 -94 -34z"/>
<path d="M1142 3573 l-64 -4 6 -67 c3 -37 8 -175 11 -307 3 -132 8 -300 11
-372 l6 -133 85 0 85 0 -6 133 c-3 72 -8 231 -11 352 -3 121 -8 262 -11 313
-6 87 -7 92 -27 90 -12 -1 -51 -3 -85 -5z"/>
<path d="M3277 3573 l-59 -4 9 -247 c13 -401 13 -420 -17 -444 -21 -17 -36
-19 -92 -16 -90 5 -108 23 -159 163 -21 60 -43 113 -47 117 -13 13 -165 -60
-159 -75 33 -73 68 -172 73 -205 11 -67 -32 -142 -115 -203 -36 -27 -90 -59
-118 -71 -29 -12 -53 -25 -53 -29 0 -18 63 -139 73 -139 6 0 52 20 102 44 105
52 191 129 231 209 15 29 27 53 29 55 1 1 17 -6 36 -15 26 -14 59 -18 144 -18
102 0 113 2 158 28 31 18 55 42 70 70 21 40 22 52 21 257 -1 118 -4 286 -9
373 l-7 157 -27 -2 c-14 -1 -52 -3 -84 -5z"/>
<path d="M3606 3573 l-68 -4 5 -57 c4 -31 9 -205 12 -387 3 -181 8 -354 11
-382 l5 -53 86 0 85 0 -6 153 c-3 83 -8 251 -11 372 -8 311 -13 365 -33 363
-10 -1 -48 -4 -86 -5z"/>
<path d="M5961 3573 l-54 -4 6 -105 c4 -57 10 -207 13 -332 l7 -228 -29 -23
c-25 -20 -38 -22 -96 -19 -57 3 -72 8 -97 32 -35 34 -58 104 -68 210 l-8 79
-75 -2 c-41 -1 -78 -5 -82 -9 -4 -4 -2 -54 3 -111 12 -117 8 -143 -26 -177
-35 -35 -116 -34 -152 2 -24 24 -25 30 -19 82 14 115 20 104 -63 119 -40 8
-75 12 -77 11 -1 -2 -10 -39 -19 -83 -27 -129 -48 -155 -124 -155 -65 0 -93
32 -127 145 -15 52 -32 95 -38 95 -10 0 -149 -41 -154 -45 -2 -2 9 -47 24
-101 32 -114 36 -213 12 -259 -40 -75 -109 -108 -221 -107 -104 0 -162 28
-194 92 -28 55 -29 100 -3 182 11 34 20 64 20 64 0 7 -136 54 -145 50 -6 -2
-23 -37 -36 -78 -19 -57 -24 -94 -24 -173 0 -115 16 -158 81 -215 162 -142
508 -122 629 35 33 44 64 113 65 144 0 20 3 22 28 17 113 -29 220 -12 262 41
l21 26 32 -31 c39 -38 82 -52 157 -52 78 0 124 15 167 56 30 29 38 32 45 20 5
-9 30 -28 56 -43 45 -27 53 -28 172 -28 103 0 131 3 160 19 111 59 123 111
109 483 -5 142 -12 286 -15 321 l-6 62 -31 -2 c-18 -1 -56 -3 -86 -5z"/>
<path d="M6961 3504 c-48 -61 -13 -134 63 -134 64 0 96 48 74 111 -19 56 -101
69 -137 23z"/>
<path d="M9153 3488 c-72 -35 -41 -158 40 -158 43 0 74 23 82 61 17 75 -52
131 -122 97z"/>
<path d="M7356 3483 l-58 -4 6 -192 c3 -106 9 -283 12 -394 l7 -203 85 0 85 0
-7 213 c-3 116 -9 296 -13 400 l-6 187 -26 -2 c-14 -1 -52 -3 -85 -5z"/>
<path d="M2776 3427 c-18 -18 -26 -37 -26 -62 0 -77 92 -114 147 -59 21 22 25
32 20 66 -3 22 -12 47 -20 55 -8 8 -33 17 -55 20 -34 5 -44 1 -66 -20z"/>
<path d="M2058 3297 c-44 -58 -46 -63 -31 -80 15 -16 14 -20 -19 -55 -20 -20
-43 -51 -52 -69 -22 -44 -20 -128 4 -182 11 -24 20 -45 20 -48 0 -3 -43 -3
-95 -1 -86 3 -97 5 -120 29 -15 15 -42 70 -66 134 -21 60 -43 113 -48 118 -6
6 -136 -49 -158 -67 -1 -1 14 -42 35 -91 76 -189 34 -281 -180 -386 -38 -18
-68 -36 -68 -40 0 -20 61 -139 71 -139 7 0 50 18 96 40 100 49 198 137 239
214 l28 54 31 -16 c43 -24 216 -23 311 1 71 18 71 18 145 -4 93 -29 228 -32
275 -7 48 26 91 81 99 127 21 123 -55 225 -311 417 -83 63 -153 114 -155 114
-2 0 -25 -28 -51 -63z"/>
<path d="M6477 3269 c-32 -23 -60 -46 -63 -53 -3 -7 16 -43 42 -81 93 -140
117 -207 86 -245 -28 -35 -133 -40 -217 -12 -33 11 -60 20 -61 19 -1 -1 -13
-36 -27 -77 l-26 -75 51 -24 c40 -19 75 -25 149 -29 112 -5 187 9 229 44 l28
24 51 -32 c44 -27 64 -32 132 -36 147 -8 244 32 291 120 32 61 32 198 -1 329
-13 53 -27 102 -31 109 -6 10 -26 6 -87 -14 l-80 -27 24 -82 c29 -101 40 -196
24 -224 -26 -49 -169 -58 -215 -14 -14 13 -39 60 -57 105 -18 44 -43 104 -57
131 -32 66 -110 185 -119 184 -5 0 -34 -18 -66 -40z"/>
<path d="M10388 3249 c-114 -17 -205 -79 -223 -152 -13 -51 3 -91 61 -156 31
-34 54 -65 50 -68 -3 -3 -61 -8 -129 -11 -121 -4 -123 -4 -154 22 -17 15 -39
48 -49 74 -32 87 -76 192 -81 192 -8 0 -153 -69 -153 -72 0 -2 15 -42 34 -89
56 -140 56 -179 0 -261 -30 -43 -118 -107 -191 -138 -29 -12 -53 -27 -53 -31
0 -25 60 -139 73 -139 8 0 56 20 106 45 105 53 193 134 229 211 l24 50 51 -17
c29 -10 80 -18 113 -19 75 0 216 24 281 48 47 17 49 17 105 -5 77 -31 144 -43
248 -43 95 0 138 13 183 54 l27 25 33 -19 c41 -26 150 -60 191 -60 157 0 251
148 201 317 -22 74 -67 130 -128 159 -91 42 -193 26 -260 -42 -16 -16 -54 -70
-84 -121 -30 -51 -67 -104 -81 -119 -26 -25 -30 -26 -119 -22 -51 2 -95 7 -99
10 -3 4 3 19 14 35 33 47 59 106 67 150 7 46 -17 114 -51 145 -48 43 -142 61
-236 47z m100 -155 c12 -8 22 -24 22 -35 0 -26 -23 -69 -48 -92 -20 -18 -21
-17 -85 47 l-65 65 36 15 c48 20 112 20 140 0z m696 -99 c42 -46 40 -116 -4
-130 -30 -9 -78 1 -118 25 -32 20 -32 20 -16 51 40 79 96 100 138 54z"/>
<path d="M9171 3208 c-138 -21 -269 -120 -412 -308 l-25 -33 -32 18 c-32 19
-53 59 -87 163 -9 28 -21 52 -27 52 -5 0 -43 -10 -84 -22 -60 -17 -74 -25 -69
-37 4 -9 18 -59 32 -110 32 -121 29 -200 -9 -258 -74 -113 -311 -119 -391 -10
-30 40 -35 135 -10 209 l20 57 -74 30 -74 30 -14 -32 c-7 -18 -21 -59 -30 -91
-24 -81 -17 -224 13 -282 63 -122 237 -188 428 -164 92 12 166 44 224 96 47
43 100 142 100 188 0 23 3 27 18 21 64 -25 145 -37 277 -42 243 -9 385 27 477
119 50 50 68 99 68 184 -1 160 -132 251 -319 222z m108 -173 c32 -16 41 -33
41 -74 0 -35 -32 -65 -90 -87 -53 -19 -300 -33 -300 -17 0 6 32 41 71 78 109
103 206 138 278 100z"/>
<path d="M660 3199 c-135 -56 -182 -237 -90 -343 17 -18 30 -36 30 -39 0 -3
-25 -11 -55 -18 -31 -7 -58 -16 -60 -20 -8 -12 38 -149 49 -149 14 0 307 98
389 130 31 13 57 27 57 31 0 5 -12 38 -26 75 -20 50 -31 64 -43 61 -9 -3 -42
-15 -73 -28 -51 -19 -61 -20 -89 -9 -20 9 -37 26 -45 46 -19 45 -18 59 9 89
23 27 72 37 113 22 20 -7 23 -2 38 65 11 51 13 75 6 82 -15 15 -178 18 -210 5z"/>
<path d="M2999 1981 c-30 -24 -33 -89 -5 -120 29 -32 98 -29 125 5 63 80 -41
179 -120 115z"/>
<path d="M5417 1903 l-59 -4 9 -272 c11 -381 11 -393 -9 -413 -10 -11 -38 -19
-70 -21 -80 -6 -107 16 -167 134 -69 138 -134 193 -227 193 -102 0 -181 -60
-255 -196 -24 -43 -56 -92 -72 -108 -28 -28 -29 -29 -118 -24 -49 3 -92 8 -95
10 -2 3 11 29 30 57 38 56 56 107 56 159 0 137 -160 208 -342 152 -110 -34
-168 -91 -168 -168 0 -55 10 -75 72 -138 60 -62 58 -63 -87 -71 -153 -8 -160
-3 -229 177 -21 52 -41 99 -46 104 -8 8 -160 -56 -160 -67 0 -2 14 -37 31 -78
21 -50 33 -97 36 -144 5 -65 3 -73 -24 -112 -38 -56 -93 -99 -184 -142 l-77
-36 31 -73 c18 -42 37 -72 46 -72 8 0 52 18 98 40 101 49 198 137 239 215 21
40 33 53 44 49 74 -32 98 -36 185 -30 101 7 201 28 246 52 29 14 34 14 73 -5
59 -27 182 -51 264 -51 84 0 146 20 189 62 l33 32 43 -32 c60 -43 139 -72 193
-72 50 0 76 11 115 47 l26 24 37 -25 c45 -30 104 -40 196 -34 122 9 194 62
221 162 11 40 6 450 -7 644 -6 81 -6 82 -32 80 -15 -1 -53 -3 -85 -5z m-1162
-477 c22 -16 23 -65 0 -99 -29 -45 -44 -42 -111 23 l-63 61 32 14 c41 18 118
19 142 1z m659 -87 c57 -45 83 -138 44 -162 -40 -26 -172 51 -161 94 6 23 65
89 80 89 6 0 22 -9 37 -21z"/>
<path d="M5742 1903 l-63 -4 6 -182 c4 -100 10 -297 14 -437 l6 -255 79 -3
c44 -2 83 1 87 5 8 8 -4 598 -17 786 -6 91 -7 97 -28 95 -11 -1 -49 -3 -84 -5z"/>
<path d="M6921 1903 l-74 -4 6 -137 c4 -75 10 -252 13 -392 6 -218 5 -263 -9
-310 -29 -99 -96 -140 -224 -140 -129 1 -195 44 -209 138 -6 42 9 132 30 183
6 13 -7 22 -64 45 -42 16 -74 24 -79 18 -22 -23 -54 -146 -59 -220 -6 -109 14
-171 78 -234 65 -66 137 -92 269 -98 120 -5 193 8 265 46 72 39 123 102 148
186 11 39 22 72 23 74 1 1 17 -6 36 -15 43 -21 132 -28 184 -14 22 6 56 23 75
39 l34 29 63 -29 c164 -77 292 -53 356 66 17 32 22 58 22 116 -1 160 -99 270
-241 270 -106 0 -162 -44 -262 -208 -42 -67 -72 -106 -88 -113 -71 -26 -147 5
-163 68 -5 21 -12 135 -15 253 -9 293 -16 390 -30 388 -6 -1 -44 -4 -85 -5z
m695 -586 c19 -23 24 -39 22 -71 -3 -34 -7 -42 -30 -50 -33 -12 -136 17 -145
39 -6 18 30 78 63 104 30 24 57 18 90 -22z"/>
<path d="M8003 1903 l-63 -4 1 -107 c0 -59 6 -224 12 -367 12 -246 14 -263 37
-305 18 -32 39 -51 75 -69 48 -25 55 -26 250 -26 215 0 251 6 305 52 l30 25
48 -30 c26 -17 65 -35 87 -41 97 -26 228 -4 289 49 l33 29 23 -24 c41 -43 103
-60 225 -60 95 0 116 3 152 22 23 13 46 30 51 39 7 13 13 11 40 -14 52 -49
175 -66 291 -41 104 22 158 92 167 217 5 63 -20 649 -27 657 -2 2 -42 1 -88
-2 l-84 -6 6 -111 c4 -61 10 -210 13 -332 l7 -220 -28 -22 c-21 -17 -41 -22
-87 -22 -52 0 -63 4 -87 28 -35 35 -38 63 -47 420 -4 144 -10 264 -13 266 -3
1 -44 1 -90 -2 l-83 -4 6 -87 c3 -47 8 -194 12 -326 6 -227 5 -241 -13 -263
-36 -45 -184 -42 -230 4 -23 23 -25 31 -21 106 l3 82 -65 12 c-36 7 -70 13
-77 13 -7 1 -15 -20 -19 -46 -10 -70 -41 -146 -70 -174 -22 -20 -36 -24 -92
-24 -89 0 -124 23 -193 123 -29 42 -91 116 -138 164 -46 49 -83 90 -80 92 6 7
218 109 277 134 28 12 52 27 52 32 0 19 -59 140 -68 140 -23 0 -373 -184 -410
-216 -40 -34 -42 -38 -42 -91 l0 -55 113 -111 c123 -122 151 -167 123 -195
-14 -14 -42 -18 -170 -20 -149 -3 -154 -3 -181 20 -27 24 -28 28 -36 164 -4
76 -11 228 -15 337 -6 193 -7 197 -28 195 -11 -1 -49 -3 -83 -5z"/>
<path d="M2988 1704 c-60 -18 -139 -103 -163 -175 -22 -66 -17 -164 10 -201
44 -59 132 -86 224 -68 30 5 57 7 60 4 13 -12 -50 -53 -99 -63 -28 -6 -109
-11 -181 -11 -142 0 -242 16 -348 56 -35 13 -68 21 -72 17 -13 -14 -49 -147
-41 -154 4 -3 23 -12 42 -19 57 -21 102 -59 98 -82 -8 -52 -115 -88 -264 -88
-212 0 -299 79 -261 240 8 36 18 74 21 85 6 17 -3 24 -66 47 -40 15 -73 26
-75 24 -2 -1 -15 -36 -29 -77 -89 -249 5 -435 240 -478 84 -15 248 -13 331 4
90 19 185 66 224 110 32 37 56 104 47 133 -5 16 9 17 162 17 133 0 179 4 226
18 152 47 218 153 217 346 0 172 -66 292 -173 319 -58 15 -71 14 -130 -4z
m101 -165 c10 -11 24 -41 31 -66 14 -57 6 -64 -70 -61 -48 3 -56 6 -68 30 -9
19 -9 33 -1 55 24 63 71 82 108 42z"/>
<path d="M8971 1684 c-42 -54 -16 -120 51 -130 30 -5 41 -2 62 19 54 54 20
137 -56 137 -28 0 -42 -7 -57 -26z"/>
<path d="M9178 1693 c-55 -65 -4 -157 76 -137 54 13 76 94 36 134 -26 26 -91
27 -112 3z"/>
<path d="M2077 612 c-23 -25 -22 -94 1 -115 31 -29 74 -31 105 -7 22 17 27 30
27 64 0 29 -6 48 -18 59 -26 23 -94 22 -115 -1z"/>
<path d="M2280 610 c-26 -26 -26 -80 -1 -111 14 -18 29 -24 61 -24 66 0 100
58 69 118 -16 31 -28 37 -71 37 -25 0 -45 -7 -58 -20z"/>
</g>
</svg>
